<?xml version="1.0" standalone="no"?>
<!DOCTYPE svg PUBLIC "-//W3C//DTD SVG 1.1//EN" "http://www.w3.org/Graphics/SVG/1.1/DTD/svg11.dtd">
<svg width="100%" height="100%" viewBox="0 0 50 17" version="1.1" xmlns="http://www.w3.org/2000/svg" xmlns:xlink="http://www.w3.org/1999/xlink" xml:space="preserve" style="fill-rule:evenodd;clip-rule:evenodd;stroke-linejoin:round;stroke-miterlimit:1.41421;">
    <g transform="matrix(0.232985,0,0,0.232985,-88.4127,-34.916)">
        <path d="M525.319,177.29C530.751,174.367 532.42,169.102 528.74,165.783C527.585,169.668 526.535,173.201 525.319,177.29M461.933,177.398C467.361,174.248 468.871,169.732 465.634,165.433C464.343,169.606 463.246,173.155 461.933,177.398M511.195,151.849C507.647,157.447 507.395,163.847 506.744,170.149C510.732,164.659 512.893,158.724 511.195,151.849M432.587,203.538C432.132,203.193 431.677,202.848 431.221,202.503C428.26,205.693 425.192,208.795 422.411,212.135C421.706,212.982 421.917,214.591 421.706,215.849C423.008,215.469 424.884,215.505 425.511,214.638C428.077,211.087 430.261,207.262 432.587,203.538M425.092,169.493C425.488,165.489 425.858,161.626 426.256,157.766C426.537,155.04 425.755,152.612 422.852,152.339C420.129,152.083 418.56,154.182 417.956,156.779C416.787,161.802 419.41,166.615 425.092,169.493M539.743,200.081C539.806,201.251 539.66,202.352 539.968,203.306C540.402,204.651 541.173,205.887 541.8,207.17C542.941,206.322 544.248,205.627 545.196,204.601C550.173,199.213 550.608,192.047 552.167,185.415C552.521,183.9 550.413,181.806 549.438,179.978C547.912,180.934 545.844,181.538 544.958,182.907C541.582,188.12 539.995,193.991 539.743,200.081M584.963,218.122C585.232,215.314 585.05,212.244 584.173,209.59C581.681,202.048 572.746,200.655 567.489,206.633C564.442,210.099 561.333,213.6 557.781,216.51C552.982,220.44 548.792,218.577 548.106,212.5C547.851,210.226 548.065,207.898 548.065,205.233C547.345,205.835 546.819,206.189 546.397,206.642C541.747,211.639 535.39,211.113 532.335,204.899C530.622,201.415 530.322,197.238 529.247,192.806C524.001,192.391 520.318,188.693 518.396,182.559C516.55,185.245 515.089,187.563 513.437,189.736C508.674,195.998 503.921,195.374 500.877,188.15C500.706,187.745 500.555,187.33 500.212,186.448C498.565,188.915 497.297,191.202 495.634,193.156C494.777,194.165 492.985,195.371 492.048,195.082C490.795,194.698 489.313,193.066 489.075,191.76C488.51,188.654 488.619,185.424 488.487,182.863C487.158,184.971 486.026,188.873 483.614,189.974C481.362,191.002 477.752,189.059 473.945,188.257C465.773,195.009 461.338,194.333 455.374,184.242C452.929,186.135 450.381,187.878 448.164,189.971C447.515,190.582 447.528,192.242 447.719,193.337C449.757,205.009 441.452,217.755 430.082,219.954C428.018,220.353 425.646,220.199 423.629,219.593C418.222,217.968 416.58,213.686 419.938,209.163C422.737,205.392 426.007,201.787 429.699,198.92C432.9,196.435 432.757,194.232 431.034,191.364C430.279,190.108 429.346,188.959 427.988,187.052C421.811,200.005 411.741,208.592 401.348,217.013C398.247,219.525 379.537,215.571 379.537,215.571C379.537,215.571 405.833,205.843 411.943,201.457C417.801,197.251 420.17,190.715 422.583,184.342C422.941,183.394 421.865,181.646 421.06,180.561C417.97,176.394 414.117,172.676 411.657,168.184C406.82,159.353 413.538,149.503 423.643,149.959C428.543,150.18 432.184,153.616 432.533,158.902C432.814,163.158 432.825,167.471 432.451,171.716C432.255,173.958 433.084,174.902 434.643,176.167C438.562,179.345 442.239,182.822 446.42,186.54C447.927,185.392 450.386,183.969 452.217,181.97C453.501,180.567 454.076,178.428 454.703,176.531C455.816,173.165 456.373,169.57 457.834,166.38C459.095,163.628 461.698,161.892 465.001,162.907C468.305,163.923 469.113,166.655 469.019,169.816C468.911,173.445 467.573,176.455 464.27,178.12C461.997,179.266 461.833,181.045 462.161,183.047C462.614,185.82 462.19,189.08 465.353,190.63C466.131,191.011 467.54,190.982 468.231,190.512C471.359,188.38 474.407,186.354 474.609,181.736C474.856,176.056 477.141,170.93 481.14,166.765C484.829,162.922 487.764,162.515 492.337,165.197C489.006,164.302 487.196,166.261 485.872,168.625C483.004,173.742 481.193,179.223 481.363,185.167C481.394,186.263 482.175,187.339 482.612,188.423C483.4,187.55 484.54,186.807 484.921,185.781C486.81,180.692 488.757,175.599 490.173,170.369C491.132,166.828 493.022,166.407 495.925,167.15C494.569,175.885 493.242,184.423 491.916,192.959C492.387,193.084 492.857,193.208 493.328,193.332C495.959,189.34 499.423,185.782 499.528,180.468C499.708,171.476 500.97,162.687 504.856,154.485C505.535,153.051 506.896,151.647 508.299,150.908C511.522,149.212 513.74,150.525 513.951,154.217C514.34,161.006 512.039,166.9 507.702,172.124C506.697,173.335 505.885,175.051 505.775,176.592C505.494,180.507 505.571,184.457 505.695,188.386C505.74,189.789 506.334,191.175 506.866,193.337C508.486,191.964 509.682,191.269 510.443,190.249C514.155,185.267 518.099,180.533 518.472,173.707C518.634,170.717 520.425,167.482 522.352,165.053C523.486,163.624 526.416,162.845 528.397,163.059C531.028,163.343 532.193,165.805 532.33,168.496C532.532,172.467 531.55,176.04 527.834,177.963C524.911,179.474 525.24,181.749 525.614,184.155C526.066,187.063 526.092,190.327 530.392,191.208C530.989,189.614 531.323,187.876 532.216,186.501C534.315,183.274 536.141,179.532 539.056,177.248C544.096,173.299 549.866,175.1 553.763,181.416C555.447,175.871 557.266,170.83 558.462,165.645C559.43,161.449 559.535,157.059 560.287,152.802C560.467,151.78 561.603,150.279 562.459,150.163C564.095,149.94 566.251,150.016 567.463,150.933C569.925,152.794 569.384,155.766 568.644,158.337C564.548,172.553 560.331,186.734 556.181,200.936C554.801,205.659 553.496,210.405 551.88,216.119C553.91,215.301 555.231,215.123 556.03,214.38C558.391,212.19 560.796,209.966 562.739,207.415C570.216,197.598 583.661,193.332 593.536,206.6" style="fill:rgb(97,73,73);"/>
    </g>
</svg>
